<!DOCTYPE svg PUBLIC "-//W3C//DTD SVG 1.1//EN" "http://www.w3.org/Graphics/SVG/1.1/DTD/svg11.dtd">
<!-- Uploaded to: SVG Repo, www.svgrepo.com, Transformed by: SVG Repo Mixer Tools -->
<svg width="800px" height="800px" viewBox="0 0 24.00 24.00" fill="none" xmlns="http://www.w3.org/2000/svg">
<g id="SVGRepo_bgCarrier" stroke-width="0"/>
<g id="SVGRepo_tracerCarrier" stroke-linecap="round" stroke-linejoin="round"/>
<g id="SVGRepo_iconCarrier"> <path d="M20.3 4.30998C20.03 4.18998 19.71 4.24998 19.49 4.44998L12.22 11.27V4.99998C12.22 4.69998 12.04 4.42998 11.77 4.30998C11.5 4.18998 11.18 4.24998 10.96 4.44998L3.49 11.45C3.34 11.59 3.25 11.79 3.25 12C3.25 12.21 3.34 12.41 3.49 12.55L10.96 19.55C11.1 19.68 11.29 19.75 11.47 19.75C11.57 19.75 11.67 19.73 11.77 19.69C12.04 19.57 12.22 19.3 12.22 19V12.73L19.49 19.55C19.63 19.68 19.82 19.75 20 19.75C20.1 19.75 20.2 19.73 20.3 19.69C20.57 19.57 20.75 19.3 20.75 19V4.99998C20.75 4.69998 20.57 4.42998 20.3 4.30998ZM10.72 17.27L5.1 12L10.72 6.72998V17.27ZM19.25 17.27L13.63 12L19.25 6.72998V17.27Z" fill="#f5f5f5"/> </g>
</svg>