<!DOCTYPE svg PUBLIC "-//W3C//DTD SVG 1.1//EN" "http://www.w3.org/Graphics/SVG/1.1/DTD/svg11.dtd">
<!-- Uploaded to: SVG Repo, www.svgrepo.com, Transformed by: SVG Repo Mixer Tools -->
<svg width="800px" height="800px" viewBox="0 0 24 24" fill="none" xmlns="http://www.w3.org/2000/svg">
<g id="SVGRepo_bgCarrier" stroke-width="0"/>
<g id="SVGRepo_tracerCarrier" stroke-linecap="round" stroke-linejoin="round"/>
<g id="SVGRepo_iconCarrier"> <path d="M20.51 11.45L13.04 4.44998C12.82 4.24998 12.5 4.18998 12.23 4.30998C11.96 4.42998 11.78 4.69998 11.78 4.99998V11.27L4.51 4.44998C4.29 4.24998 3.97 4.18998 3.7 4.30998C3.43 4.42998 3.25 4.69998 3.25 4.99998V19C3.25 19.3 3.43 19.57 3.7 19.69C3.8 19.73 3.9 19.75 4 19.75C4.19 19.75 4.37 19.68 4.51 19.55L11.78 12.73V19C11.78 19.3 11.96 19.57 12.23 19.69C12.33 19.73 12.43 19.75 12.53 19.75C12.72 19.75 12.9 19.68 13.04 19.55L20.51 12.55C20.66 12.41 20.75 12.21 20.75 12C20.75 11.79 20.66 11.59 20.51 11.45ZM4.75 17.27V6.72998L10.37 12L4.75 17.27ZM13.28 17.27V6.72998L18.9 12L13.28 17.27Z" fill="#f5f5f5"/> </g>
</svg>